<?xml version="1.0" standalone="no"?>
<!DOCTYPE svg PUBLIC "-//W3C//DTD SVG 20010904//EN"
 "http://www.w3.org/TR/2001/REC-SVG-20010904/DTD/svg10.dtd">
<svg version="1.0" xmlns="http://www.w3.org/2000/svg"
 width="512.000000pt" height="512.000000pt" viewBox="0 0 512.000000 512.000000"
 preserveAspectRatio="xMidYMid meet">
<metadata>
Created by potrace 1.11, written by Peter Selinger 2001-2013
</metadata>
<g transform="translate(0.000000,512.000000) scale(0.100000,-0.100000)"
fill="#000000" stroke="none">
<path d="M0 2560 l0 -2560 2560 0 2560 0 0 2560 0 2560 -2560 0 -2560 0 0
-2560z m1579 2311 c23 -23 28 -71 36 -301 14 -401 30 -562 76 -731 17 -63 27
-83 45 -91 18 -8 76 -3 251 25 295 47 378 57 488 57 198 0 456 -37 707 -100
131 -33 193 -37 225 -15 37 26 87 211 113 420 6 44 19 195 30 335 27 337 33
375 60 390 14 8 25 4 50 -16 86 -73 266 -435 368 -739 169 -504 251 -915 268
-1335 12 -287 -20 -1066 -57 -1370 -16 -138 -109 -752 -120 -792 -14 -55 -55
-64 -229 -48 -299 26 -705 83 -855 121 -88 21 -123 37 -269 123 -134 78 -183
96 -260 96 -80 0 -147 -23 -283 -98 -114 -64 -150 -75 -368 -111 -212 -35
-738 -91 -857 -91 -55 0 -90 16 -108 49 -10 19 -51 407 -92 861 -26 294 -31
873 -10 1105 54 590 114 936 216 1248 80 244 256 636 381 847 79 135 90 148
130 166 39 17 42 17 64 -5z"/>
<path d="M1213 1910 c-50 -16 -63 -43 -63 -135 0 -65 5 -90 26 -135 14 -30 33
-63 41 -73 9 -9 13 -20 10 -23 -4 -4 -14 7 -24 24 -10 18 -23 34 -30 36 -18 7
44 -80 78 -108 83 -70 227 -121 377 -134 91 -8 100 -6 258 35 228 59 284 86
320 155 18 35 18 108 -1 135 -33 48 -224 105 -610 182 -217 44 -332 56 -382
41z"/>
<path d="M3670 1859 c-41 -5 -153 -23 -250 -40 -401 -70 -538 -108 -572 -162
-74 -113 17 -197 327 -302 108 -36 112 -37 225 -31 250 12 427 101 501 252 27
54 32 76 33 142 1 61 -3 82 -16 95 -16 16 -16 15 -12 -20 l5 -38 -19 40 c-10
22 -25 45 -33 51 -21 17 -105 23 -189 13z m230 -166 c-11 -17 -11 -17 -6 0 3
10 7 28 7 40 2 22 2 22 6 0 2 -12 -1 -30 -7 -40z"/>
</g>
</svg>
